<?xml version="1.0" encoding="utf-8"?>
<!-- Generator: Adobe Illustrator 26.3.1, SVG Export Plug-In . SVG Version: 6.00 Build 0)  -->
<svg version="1.1" id="Capa_1" xmlns="http://www.w3.org/2000/svg" xmlns:xlink="http://www.w3.org/1999/xlink" x="0px" y="0px"
	 viewBox="0 0 1920 669" style="enable-background:new 0 0 1920 669;" xml:space="preserve">
<style type="text/css">
	.st0{fill:#2952A1;}
	.st1{fill:#1C97D4;}
</style>
<g>
	<path class="st0" d="M323.4,101.6c-53.7,0-97.7,42.7-97.7,94.9v43h-44.3c-53.7,0-97.7,42.7-97.7,94.9s44,94.9,97.7,94.9h14.4h29.9
		H282v-54.7h-56.3h-44c-22.8,0-41.4-18.1-41.4-40.2s18.6-40.2,41.4-40.2h44H282v-54.7v-42.8c0-22.1,18.6-40.2,41.4-40.2
		s41.4,18.1,41.4,40.2v15.5h56.3v-15.8C421.1,144.3,377.1,101.6,323.4,101.6"/>
	<path class="st1" d="M465.4,239.6H451v0.1h-29.9h-56.3v54.6h56.3h44c22.8,0,41.4,18.1,41.4,40.2c0,22.1-18.6,40.2-41.4,40.2h-44
		h-56.3v54.7v42.8c0,22.1-18.6,40.2-41.4,40.2c-22.8,0-41.4-18.1-41.4-40.2v-15.4h-56.3v15.7c0,52.2,44,94.9,97.7,94.9
		c53.7,0,97.7-42.7,97.7-94.9v-43h44.3c53.7,0,97.7-42.7,97.7-94.9v0C563.1,282.3,519.1,239.6,465.4,239.6"/>
	<path class="st0" d="M644.8,231.2h67.5c41.2,0,73,11.2,73,49.1c0,17.6-10.3,36.7-33.3,42.7v1.2c28.2,5.2,43,20,43,46.4
		c0,40.3-33.9,58.2-76.9,58.2h-73.3V231.2z M710.2,311c21.8,0,31.5-9.4,31.5-24.3c0-14.9-10.3-20.9-30.9-20.9h-21.2V311H710.2z
		 M714.5,394.3c24.2,0,37-9.1,37-27c0-17.3-12.4-24.9-37-24.9h-24.8v51.8H714.5z"/>
	<path class="st0" d="M874.1,278.1h44.5v87.5c0,21.5,5.8,28.5,18.8,28.5c11.2,0,17.9-4.8,26.7-16.7v-99.3h44.5v150.2h-36.3
		l-3.3-20.9H968c-12.7,15.1-26.7,24.5-47.3,24.5c-32.7,0-46.6-23-46.6-60.6V278.1z"/>
	<path class="st0" d="M1096.7,271.2c42.7,0,63.9,31.2,63.9,72.2c0,7.9-0.9,15.2-1.8,18.8h-90c3.9,22.7,19.1,32.7,39.1,32.7
		c11.2,0,21.5-3.3,32.4-10l14.8,27c-15.5,10.6-35.4,17-53.3,17c-43,0-76-29.1-76-78.8C1025.8,301.2,1060.7,271.2,1096.7,271.2
		 M1122.8,334.6c0-17.3-7.3-29.4-25.1-29.4c-13.9,0-26,9.4-29.1,29.4H1122.8z"/>
	<polygon class="st0" points="812.3,231.2 812.3,231.3 812.3,275.6 812.3,382.9 812.3,428.9 856.8,428.9 856.8,428.8 856.8,384.5 
		856.8,277.2 856.8,231.2 	"/>
	<path class="st1" d="M1180.6,277.4h36.5l3.2,19.4h1.1c12.4-12.5,25.9-23,45.7-23c21.2,0,34,9.2,41.6,25.4
		c13.3-13.9,27.4-25.4,47.4-25.4c32.6,0,47.2,23.2,47.2,60.9v93.8h-44.7v-88c0-21.7-5.9-28.5-18.6-28.5c-7.6,0-16.2,4.7-25.7,14.7
		v101.9h-44.7v-88c0-21.7-5.9-28.5-18.6-28.5c-7.5,0-16.2,4.7-25.7,14.7v101.9h-44.7V277.4z"/>
	<path class="st1" d="M1515.7,333.1c0-16.6-7.2-28.6-25.1-28.6c-14.1,0-26.3,9.5-29.4,28.6H1515.7z M1418.4,349.7
		c0-49,34.9-79.2,71.2-79.2c43,0,64.3,31.3,64.3,72.5c0,8.1-1,16.1-1.9,19.8h-90.3c4,21.9,19,32,39.1,32c11.4,0,21.7-3.5,32.6-9.9
		l14.8,27c-15.5,10.7-35.6,17-53.5,17C1451.8,428.8,1418.4,399.7,1418.4,349.7"/>
	<path class="st1" d="M1662.3,382.1v-62c-7.9-7.1-16.8-9.6-25-9.6c-14.5,0-27.2,13.4-27.2,42.1c0,29.6,10.2,43,27.5,43
		C1647.2,395.6,1654.9,392,1662.3,382.1 M1564.3,353.1c0-49.4,30.8-79.2,62.6-79.2c16.6,0,26.8,6.2,37,15.8l-1.6-22.9v-51.5h44.7
		v213.3h-36.5l-3.2-15h-1.1c-10.7,10.7-25.6,18.6-40.1,18.6C1588.5,432.2,1564.3,402.4,1564.3,353.1"/>
	<path class="st1" d="M1716.4,411.1l20.1-27.9c13.7,10.3,26.3,15.9,38.9,15.9c13.3,0,19.1-5.1,19.1-13c0-10-15-14.5-30.5-20.6
		c-18.5-7.2-39.9-19.5-39.9-44.4c0-28.1,22.8-47.3,57.6-47.3c23.1,0,40.3,9.4,53.2,19.1l-20,26.9c-10.7-7.8-21.3-12.9-31.8-12.9
		c-11.6,0-17.2,4.5-17.2,12.1c0,9.6,14.1,13.3,29.8,19c19.1,7.1,40.6,17.8,40.6,45.5c0,27.3-21.5,48.7-62,48.7
		C1754.5,432.2,1731.7,423.6,1716.4,411.1"/>
</g>
</svg>
