<?xml version="1.0" encoding="utf-8"?>
<!-- Generator: Adobe Illustrator 28.1.0, SVG Export Plug-In . SVG Version: 6.00 Build 0)  -->
<svg version="1.1" id="Capa_1" xmlns="http://www.w3.org/2000/svg" xmlns:xlink="http://www.w3.org/1999/xlink" x="0px" y="0px"
	 viewBox="0 0 1024 1024" style="enable-background:new 0 0 1024 1024;" xml:space="preserve">
<style type="text/css">
	.st0{fill:#1E53A5;}
</style>
<g>
	<g>
		<path class="st0" d="M39.9,877c0-218.7,0-437.5,0-656.2c0.5-1.4,1.3-2.8,1.6-4.2c11-61.2,60-102.5,122.1-102.7
			c24.6-0.1,49.2,0,73.7,0c2.9,0,5.8,0,9.1,0c0-15.6-0.1-29.7,0-43.8c0.1-12.1,5.6-21.3,16.4-26.8c19.5-9.9,41.9,4,42.5,26.3
			c0.4,14.6,0.1,29.2,0.1,43.8c138.3,0,275.2,0,413.1,0c0-15.4-0.4-30.4,0.1-45.3c0.5-15.6,13.4-27.7,28.8-27.9
			c15.7-0.3,29,11.9,29.9,27.8c0.3,5.2,0.1,10.4,0.1,15.7c0,10,0,20,0,30.3c29.4,0,57.4-0.2,85.3,0c66.9,0.5,121,53.9,121.1,120.7
			c0.3,209.5,0.6,419-0.2,628.5c-0.2,52.6-27.1,90-75.1,111.5c-9.9,4.4-21,6.3-31.5,9.4c-243.4,0-486.8,0-730.1,0
			c-1.7-0.6-3.3-1.3-5.1-1.7c-49.8-9.9-82.2-39.3-97.5-87.6C42.5,888.9,41.4,882.9,39.9,877z M940.1,354.9c-286.1,0-571,0-856.4,0
			c0,4.5,0,8.3,0,12.1c0,165.3,0,330.6,0,495.9c0,46,26.3,72.3,72.2,72.3c237.3,0,474.7,0,712,0c45.9,0,72.2-26.3,72.2-72.3
			c0-165.6,0-331.2,0-496.9C940.1,362.6,940.1,359.1,940.1,354.9z M84.1,307.4c285.8,0,570.6,0,855.4,0c0.2-1.6,0.5-2.5,0.5-3.4
			c0-22.9,0.3-45.8,0-68.8c-0.4-33-23.9-61.4-56.7-63.8c-31.6-2.4-68.7-0.5-101.4-0.5c0,9.3,0,18.1,0,26.9c-0.1,20-13,34-31,33.7
			c-17.6-0.2-30-14.1-30.1-33.7c-0.1-9.1,0-18.2,0-26.9c-143.5,0-271.5,0-414.2,0c0,10,0.1,19.4,0,28.9c-0.3,18-13.2,31.5-30.2,31.7
			c-17.4,0.2-30.7-13.4-30.9-31.9c-0.1-9.5,0-18.9,0-28.8c-32.7,0-73.2-1.7-104.8,0.5c-30.2,2.1-54.2,27.3-56.1,57.2
			C82.8,254.6,84.1,280.7,84.1,307.4z"/>
	</g>
	<g>
		<g>
			<path class="st0" d="M374.8,509.3H237c-6.8,0-12.3-5.5-12.3-12.3v-50.4c0-6.8,5.5-12.3,12.3-12.3h137.8c6.8,0,12.3,5.5,12.3,12.3
				V497C387.1,503.8,381.6,509.3,374.8,509.3z"/>
			<path class="st0" d="M587.1,509.3H449.3c-6.8,0-12.3-5.5-12.3-12.3v-50.4c0-6.8,5.5-12.3,12.3-12.3h137.8
				c6.8,0,12.3,5.5,12.3,12.3V497C599.4,503.8,593.9,509.3,587.1,509.3z"/>
			<path class="st0" d="M799.5,509.3H661.7c-6.8,0-12.3-5.5-12.3-12.3v-50.4c0-6.8,5.5-12.3,12.3-12.3h137.8
				c6.8,0,12.3,5.5,12.3,12.3V497C811.8,503.8,806.3,509.3,799.5,509.3z"/>
		</g>
		<g>
			<path class="st0" d="M374.8,677.9H237c-6.8,0-12.3-5.5-12.3-12.3v-50.4c0-6.8,5.5-12.3,12.3-12.3h137.8c6.8,0,12.3,5.5,12.3,12.3
				v50.4C387.1,672.4,381.6,677.9,374.8,677.9z"/>
			<path class="st0" d="M587.1,677.9H449.3c-6.8,0-12.3-5.5-12.3-12.3v-50.4c0-6.8,5.5-12.3,12.3-12.3h137.8
				c6.8,0,12.3,5.5,12.3,12.3v50.4C599.4,672.4,593.9,677.9,587.1,677.9z"/>
			<path class="st0" d="M799.5,677.9H661.7c-6.8,0-12.3-5.5-12.3-12.3v-50.4c0-6.8,5.5-12.3,12.3-12.3h137.8
				c6.8,0,12.3,5.5,12.3,12.3v50.4C811.8,672.4,806.3,677.9,799.5,677.9z"/>
		</g>
		<g>
			<path class="st0" d="M374.8,846.5H237c-6.8,0-12.3-5.5-12.3-12.3v-50.4c0-6.8,5.5-12.3,12.3-12.3h137.8c6.8,0,12.3,5.5,12.3,12.3
				v50.4C387.1,841,381.6,846.5,374.8,846.5z"/>
			<path class="st0" d="M587.1,846.5H449.3c-6.8,0-12.3-5.5-12.3-12.3v-50.4c0-6.8,5.5-12.3,12.3-12.3h137.8
				c6.8,0,12.3,5.5,12.3,12.3v50.4C599.4,841,593.9,846.5,587.1,846.5z"/>
			<path class="st0" d="M799.5,846.5H661.7c-6.8,0-12.3-5.5-12.3-12.3v-50.4c0-6.8,5.5-12.3,12.3-12.3h137.8
				c6.8,0,12.3,5.5,12.3,12.3v50.4C811.8,841,806.3,846.5,799.5,846.5z"/>
		</g>
	</g>
</g>
</svg>
