<?xml version="1.0" encoding="utf-8"?>
<!-- Generator: Adobe Illustrator 28.1.0, SVG Export Plug-In . SVG Version: 6.00 Build 0)  -->
<svg version="1.1" id="Capa_1" xmlns="http://www.w3.org/2000/svg" xmlns:xlink="http://www.w3.org/1999/xlink" x="0px" y="0px"
	 viewBox="0 0 1024 1024" style="enable-background:new 0 0 1024 1024;" xml:space="preserve">
<style type="text/css">
	.st0{fill:#1E53A5;}
</style>
<g>
	<path class="st0" d="M442.6,33.8c18.3,3.4,36.7,5.8,54.8,10.3c66.8,16.7,124.8,49.3,173.2,97.8C733,204.3,769.8,279.8,779,367.7
		c8.8,84.1-8.8,162.6-53.4,234.6c-5.1,8.3-3.4,12.7,2.8,18.9c78.2,77.9,156.2,156.1,234.3,234c18.1,18,29.2,38.7,27,64.8
		c-2.6,29.9-17.9,51.6-45.2,63.4c-26.9,11.7-52.9,8.1-76.4-9.9c-5.9-4.5-11.3-9.8-16.5-15.1C774.8,881.8,698,805.2,621.5,728.2
		c-6.8-6.8-11.6-7.3-19.7-2.3c-67.9,42.3-142.4,60-221.8,54.1c-85.9-6.4-161.2-39.1-224.9-97.4C91.6,624.5,53.4,552.5,38,468.1
		c-1.6-8.5-2.7-17.2-4-25.7c0-23.6,0-47.3,0-70.9c0.4-1.8,1-3.6,1.3-5.4c10.3-86.6,46-161.3,107.3-223.1
		C190.5,94.6,248,61.9,314.2,44.7c19-4.9,38.3-7.5,57.5-11C395.3,33.8,419,33.8,442.6,33.8z M742.2,407.6
		C740.6,225.2,598.1,73.1,407.5,72.5C223.9,71.8,72.9,217.7,72.7,406.8c-0.3,185.4,147.1,334.3,334.6,334.7
		C590.7,741.9,739.8,595.5,742.2,407.6z M950.8,914.3c-0.7-10.3-4.2-19.2-11.7-26.7C886.5,835.2,834,782.7,781.6,730
		c-5.3-5.3-8.3-4.2-12.6,0.7c-11.3,12.8-23.1,25.2-36.2,36.2c-7.1,6-7.6,9.7-0.5,16.6C783.4,834,834,884.9,884.7,935.7
		c2.2,2.2,4.4,4.5,6.8,6.4c12.1,9.7,25.6,11.1,39.3,4.6C944.1,940.3,950.1,928.7,950.8,914.3z M696.1,745.9c1.7-1.1,3.4-1.9,4.7-3.1
		c15.1-12.9,29-27,42.2-42c3.6-4.1,2.5-6.8-0.8-10.2c-13.9-13.7-27.8-27.5-41.4-41.5c-4.1-4.2-6.4-2.9-9.6,0.8
		c-12.5,14.6-26,28.3-40.7,40.7c-4.3,3.6-4.8,6.1-0.5,10.3c13.8,13.4,27.2,27.1,40.9,40.7C692.3,743.1,694.1,744.3,696.1,745.9z"/>
	<path class="st0" d="M447.1,149.8c86.9,1,174.1,63.3,202,142.3c4.2,11.9-0.2,22.6-11,26.9c-10.2,4-20.1-0.3-25.3-12.6
		c-16.2-38.4-41.6-68.8-77.2-90.7c-29.6-18.2-62.2-25.8-96.5-27.6c-11.9-0.6-19-9.3-18.4-20.4c0.6-10.5,8.3-17.6,19.9-18
		C443.7,149.7,446.8,149.8,447.1,149.8z"/>
	<path class="st0" d="M644.8,393.5c-11-0.1-19.3-8.8-19-19.9c0.3-10.6,8.7-18.6,19.4-18.5c11,0.1,19.3,8.8,19,19.9
		C663.9,385.5,655.5,393.6,644.8,393.5z"/>
</g>
</svg>
