<?xml version="1.0" encoding="utf-8"?>
<!-- Generator: Adobe Illustrator 28.1.0, SVG Export Plug-In . SVG Version: 6.00 Build 0)  -->
<svg version="1.1" id="Capa_1" xmlns="http://www.w3.org/2000/svg" xmlns:xlink="http://www.w3.org/1999/xlink" x="0px" y="0px"
	 viewBox="0 0 1024 1024" style="enable-background:new 0 0 1024 1024;" xml:space="preserve">
<style type="text/css">
	.st0{fill:#1E53A4;}
</style>
<g>
	<path class="st0" d="M296.9,497.3c-30.4-5-47.3-22.1-47.3-47.2c0-24.1,19-44.4,43.1-46.1c2.2-0.2,4.5-0.1,6.7-0.1
		c193.1,0,386.2,0,579.3,0c28.3,0,49.2,19.2,49.6,45.4c0.4,23.4-16.4,42.9-40.2,46.8c-2.1,0.3-4.2,0.5-7.4,0.9
		c4.2,6.4,7.8,12,11.5,17.6c18.7,28.1,37.6,55.9,56,84.2c96,147.5,19.2,342.4-151.8,384c-19.5,4.7-40,6.8-60.1,7
		c-98,0.7-196,0.5-294,0.3c-127.7-0.3-232.6-89.9-251.7-216.1c-9.3-61.4,3.4-118.9,36.8-171.3c20.9-32.7,42.9-64.8,64.4-97.1
		C293.6,503,295.1,500.2,296.9,497.3z M774.3,955.1c2-0.2,4.2-0.1,6.3-0.5c152.2-30.2,227-203.5,144-334.6
		c-25.2-39.9-52.1-78.7-78.5-117.8c-1.9-2.8-6.5-5.2-9.9-5.2c-164.8-0.3-329.6-0.3-494.5,0c-3.4,0-8,2.4-9.9,5.2
		c-26.4,39.1-52.8,78.3-78.6,117.8c-21.3,32.7-32.4,69.1-34.1,108c-4.6,105.9,66.5,200.3,169.6,224.8c15.3,3.6,31.3,4.9,46.6,7.1
		c0-22,0-41.7,0-62c-4.9,0-10,0.1-15.1,0c-27.4-0.3-47.1-20.1-47.4-47.6c-0.1-7.1,0.5-14.2-0.1-21.2c-3.1-34.5,22.1-57.4,54.6-55.3
		c23.3,1.5,46.8,0.3,69.7,0.3c0-20.8,0-40.7,0-61.3c-5.1,0-10.2,0.1-15.3,0c-27-0.3-46.9-20-47.3-46.8c-0.1-10-0.1-19.9,0-29.9
		c0.3-26.9,20.1-47,46.9-47.1c81.9-0.2,163.9-0.1,245.8,0c26.9,0,46.7,20.1,47,47c0.2,14.9,0,29.9,0,45.5c4.1,0,9.2,0,14.3,0
		c27.4,0.3,47.1,20.1,47.4,47.6c0.1,7.7,0,15.4,0,23.1c0,34.8-18.1,53-52.6,53c-24,0-48.1,0-70.8,0c0,10.7,0,20.6,0,30.5
		c0,10.1,0,20.1,0,30.8c4.2,0,9.4-0.1,14.5,0c26.9,0.3,46.9,20,47.2,46.8C774.4,927.1,774.3,940.8,774.3,955.1z M873.7,465.2
		c3.2,0,6.5,0.2,9.6-0.2c8-1.1,14.1-7.7,13.6-15c-0.6-8.5-5.6-13.4-14-14.6c-3.2-0.5-6.4-0.2-9.6-0.2c-189.5,0-379,0-568.5,0
		c-2.2,0-4.5-0.1-6.7,0c-10.1,0.4-16.8,6.3-17,14.7c-0.2,8.7,6.9,14.9,17.4,15.3c2.6,0.1,5.1,0,7.7,0c94.1,0,188.2,0,282.3,0
		 M496.2,620.2c-4.3,0-7.2,0-10,0c-15,0-20.2,5.2-20.3,20.2c0,7.1-0.1,14.1,0,21.2c0.1,14.4,5.4,19.6,19.9,19.6
		c38.2,0.1,76.4,0,114.6,0c41.1,0,82.2,0,123.3,0c13.7,0,19.1-5.5,19.2-19.4c0.1-8.7,0.3-17.3-0.1-26c-0.4-9.3-6-14.9-15.1-15.6
		c-4.7-0.3-9.4-0.1-15.3-0.1c0,10.7,0,20.5,0,30.1c-10.9,0-20.7,0-31.7,0c0-10.4,0-20.1,0-29.7c-10.4,0-19.6,0-30,0
		c0,10.2,0,20,0,29.7c-11,0-20.7,0-31.7,0c0-10.4,0-20.1,0-29.4c-10.6,0-20.1,0-30.3,0c0,10.3,0,19.8,0,29.5c-10.6,0-20.4,0-31.3,0
		c0-10.3,0-20,0-29.5c-10.6,0-20.1,0-30.3,0c0,10.3,0,19.8,0,29.5c-10.6,0-20.4,0-31,0C496.2,640.5,496.2,631,496.2,620.2z
		 M619.5,806c-10.6,0-20,0-30.6,0c0,10.3,0,20.1,0,29.5c-11,0-20.7,0-31.3,0c0-10.2,0-19.7,0-29.5c-10.3,0-19.7,0-30.3,0
		c0,10.3,0,20,0,29.6c-11,0-20.7,0-31.3,0c0-10.2,0-19.7,0-29.6c-10.3,0-19.7,0-30.3,0c0,10.2,0,20,0,29.7c-11,0-20.7,0-31.6,0
		c0-10.4,0-20.1,0-30.2c-4,0-6.9,0-9.8,0c-14.5,0.1-19.9,5.3-20,19.5c-0.1,6.7,0,13.5,0,20.2c0,16.4,4.9,21.3,21.2,21.3
		c52.3,0,104.7,0,157,0c27,0,53.9,0.1,80.9-0.1c12-0.1,17.7-5.8,17.9-17.7c0.2-9,0.1-18,0-27c-0.1-8-3.9-14-11.7-15.5
		c-5.7-1.2-11.9-0.2-18.9-0.2c0,10.5,0,20.2,0,29.5c-11,0-20.7,0-31,0c0-5.3,0-9.7,0-14.2C619.5,816.4,619.5,811.6,619.5,806z
		 M557.7,713.5c-3.7-0.2-6.2-0.4-8.7-0.4c-16-0.1-21.2,5-21.2,21.3c0,5.5,0,10.9,0,16.4c0,18.4,4.4,22.9,22.5,22.9c62,0,124,0,186,0
		c16.7,0,33.4,0.1,50.1-0.1c11.9-0.1,17.6-5.9,17.9-17.8c0.2-6.4-0.5-12.9,0.1-19.3c1.6-16-4.7-27.8-30.2-21.9c0,9.3,0,18.8,0,28.4
		c-11,0-21,0-31.9,0c0-10.3,0-19.8,0-29.3c-10.3,0-19.7,0-30,0c0,10.3,0,19.8,0,29.5c-10.7,0-20.5,0-31.6,0c0-10.2,0-20,0-29.7
		c-10.4,0-19.6,0-30,0c0,10.3,0,20,0,29.6c-11.1,0-20.9,0-31.9,0c0-10.4,0-20.1,0-29.5c-10.4,0-19.6,0-29.7,0c0,10.1,0,19.6,0,29.4
		c-11,0-21,0-31.6,0C557.7,733.1,557.7,723.9,557.7,713.5z M557.8,899c-10.2,0-19.8,0-30.3,0c0,10.1,0,19.6,0,29.2
		c-11,0-21,0-31.9,0c0-10.3,0-19.8,0-29.6c-3.1-0.2-5.3-0.4-7.5-0.4c-16.9-0.2-21.9,4.7-22,21.5c0,6.4,0,12.8,0,19.3
		c0.1,14.4,5.4,19.8,19.8,19.8c23.1,0.1,46.3,0,69.4,0c55.6,0,111.1,0,166.7,0c15.6,0,20.6-5.2,20.7-20.9c0-5.5,0-10.9,0-16.4
		c0-20.5-9.2-27.3-30.2-21.5c0,9.2,0,18.7,0,28.2c-11,0-21,0-31.9,0c0-10.3,0-19.8,0-29.5c-10.1,0-19.2,0-29.7,0c0,10.2,0,20,0,29.7
		c-11.1,0-20.9,0-31.9,0c0-10.3,0-20.1,0-29.6c-10.4,0-19.6,0-30,0c0,10.4,0,20.1,0,29.5c-11.1,0-20.9,0-31.2,0
		C557.8,918.3,557.8,909.1,557.8,899z"/>
	<path class="st0" d="M34,346c0-95.1,0-189.8,0-285.6c22.5,5.6,44.5,11,66.5,16.5c21.2,5.3,42.3,10.8,63.5,15.8
		c4.1,1,9.3,1.2,12.9-0.5c55.5-27,115.6-35.6,175.5-45c24.7-3.9,49.4-8.2,74.1-11.9c25.9-3.9,51.1-0.3,76,7.5c5,1.6,11.4,1.6,16.4,0
		C633.6,4.2,751.4,93.8,742.6,214.4c-4.9,67.1-39.3,116.5-100.8,143.7c-61.2,27.1-119.8,18.3-173.2-22c-5.7-4.3-10.8-5.4-17.6-4.9
		c-45.1,3.7-90.2,7.6-135.4,10.5c-45,2.8-88.2-5.8-129.4-24c-10.3-4.5-19.7-4.8-30.5-2C117.3,326.1,78.6,335.4,40,345
		C38.2,345.4,36.3,345.6,34,346z M470,68.7c-0.3-0.9-0.5-1.8-0.8-2.7c-12.4,0-25.1-1.5-37.2,0.3c-38.4,5.5-76.6,12.7-115,18.2
		c-42.2,6-83,16.6-121.9,34.2c-3.9,1.8-7.1,2.8-7.1,8.5c0.2,50.8,0.1,101.5,0.4,152.3c0,2.6,2.5,6.6,4.9,7.6
		c26,11.2,52.8,21.1,81.3,22c27.8,0.9,55.8-0.3,83.6-1.9c39.7-2.4,79.4-5.9,119.1-9.3c10.7-0.9,18-8.7,18.8-18.6
		c0.8-9.3-5.3-18-15-21c-6.1-1.9-12.4-3.2-18.7-4.7c-42.6-10-84.3-22.3-123.6-42.1c-20.9-10.5-31.4-29.9-26.9-50.2
		c4.9-21.8,22.5-35.2,46.5-35.3c19-0.1,37.9,0.1,56.9-0.2c3,0,7.6-1.3,8.8-3.4C435.8,101.6,451.2,83.7,470,68.7z M503,322.4
		c28.5,15.9,57.5,22.2,88.9,18.1c79-10.2,134-87.4,117.1-165c-16.1-73.8-84.1-120.2-158.9-108.5C485.3,77.1,434.4,137.5,434.9,203
		c0.1,8.5,2.7,12.4,11.4,14.1c14.8,2.9,29.3,6.8,43.8,11.1c19.1,5.6,31.4,18.4,36,37.8C531.5,289.3,522.4,307.3,503,322.4z
		 M156.1,283.6c0-53.9,0-107.1,0-160.5c-30.4-7.5-60.3-15-90.8-22.5c0,69.4,0,136.8,0,205.6C96,298.6,126,291.1,156.1,283.6z
		 M409.3,157.2c-18.2,0-36.5-0.6-54.6,0.4c-4.2,0.2-10.3,5.4-11.4,9.4c-1.1,4,1.7,12,5.1,13.7c17.6,9,35.9,16.5,54.1,24.6
		C404.9,188.3,407,173.1,409.3,157.2z"/>
</g>
</svg>
