<?xml version="1.0" encoding="utf-8"?>
<!-- Generator: Adobe Illustrator 28.1.0, SVG Export Plug-In . SVG Version: 6.00 Build 0)  -->
<svg version="1.1" id="Capa_1" xmlns="http://www.w3.org/2000/svg" xmlns:xlink="http://www.w3.org/1999/xlink" x="0px" y="0px"
	 viewBox="0 0 1024 1024" style="enable-background:new 0 0 1024 1024;" xml:space="preserve">
<style type="text/css">
	.st0{fill:#1E53A4;}
</style>
<g>
	<path class="st0" d="M251.8,952.6c62.3,0,124.6,0,186.9,0c17.5,0,26.9,6.7,26.5,19.1c-0.3,12-9.4,18.3-26.4,18.3
		c-111.4,0-222.8,0-334.2,0c-42.2,0-54.9-8.4-70.6-46.7c0-287.6,0-575.1,0-862.7c1.9-4.9,3.5-9.8,5.7-14.6
		c8.1-17.8,23.3-26.6,41-32.1c175.5,0,351.1,0,526.6,0c5,3.6,10.5,6.7,14.8,11c51.8,51.6,103.4,103.4,155.3,155
		c7.6,7.5,11.2,15.5,11.2,26.4c-0.3,112-0.2,224-0.2,336.1c0,0.6,0,1.2,0,1.9c-0.1,15.1-7.1,24.2-18.7,24.2
		c-11.6,0-18.7-9-18.7-24.1c0-104.9,0-209.7,0-314.6c0-3.7,0-7.4,0-12.2c-4,0-7.3,0-10.6,0c-31.1,0-62.2,0-93.4,0
		c-39.2,0-62.2-22.9-62.3-61.8c0-31.1,0-62.2,0-93.4c0-3.3,0-6.7,0-11c-4.2,0-7.5,0-10.8,0c-158.7,0-317.4,0-476.1,0
		c-20.8,0-26.6,5.8-26.6,26.7c0,276,0,552,0,828c0,20.9,5.8,26.7,26.6,26.7C149.2,952.6,200.5,952.6,251.8,952.6 M721,200.1
		c-32.9-33-65.8-66-98.6-98.8c0,26.6-0.4,54.2,0.2,81.7c0.2,10.5,8.4,16.9,19.8,17C668.8,200.2,695.3,200.1,721,200.1z"/>
	<path class="st0" d="M80.7,33.9C63,39.4,47.8,48.2,39.7,66c-2.2,4.7-3.8,9.7-5.7,14.6c0-15.6,0-31.1,0-46.7
		C49.6,33.9,65.1,33.9,80.7,33.9z"/>
	<path class="st0" d="M858.8,759.1c40.7-3.4,75,8.4,102,38.5c19.2,21.4,28.9,46.9,29.2,75.7c0.6,59.4-43,108.6-103.8,115.8
		c-32.8,3.9-62.2-5.9-87.3-27.4c-24.7-21.2-37.6-48.7-40.6-83.5c-9.1,9.4-16.6,17.2-24.2,24.9c-17.6,17.6-34.9,35.5-52.9,52.7
		c-32.5,31-71.1,41.8-114.3,29.1c-42.4-12.4-69.7-41.3-80-84.4c-9.1-38.1-1.4-74,25.9-102.3c51.8-53.8,104.6-106.5,158.3-158.4
		c34.9-33.7,91.5-38.4,133.6-13.9c43.6,25.4,66.3,76,55.6,124.2C859.7,752.7,859.4,755.4,858.8,759.1z M633.2,730.2
		c36.8,36.7,73.6,73.5,110.7,110.5c18.8-18.9,39.1-38.2,58.2-58.6c31.1-33.2,31.1-79.7,1-110.8c-29.1-30.1-76.6-31.5-109.2-1.8
		C672.3,689.1,652.5,710.7,633.2,730.2z M603.7,758.4c-22,22.7-45.1,44.5-65.8,68.4c-23.7,27.3-22,68.6,1.9,97.8
		c22.4,27.5,63.1,36,94.5,19.4c6.8-3.6,13.6-7.9,19-13.2c20.8-20.3,41-41.2,61.1-61.6C677.7,832.4,641.3,796,603.7,758.4z
		 M893.3,949.1c32.3-4.8,59.4-39.2,59.4-75c0-35.8-27.3-70.4-59.4-74.9C893.3,849.2,893.3,899.1,893.3,949.1z M855,949.3
		c0-50.4,0-100.3,0-150.3c-33.7,7-59,39.5-59.1,75C795.9,909.5,821.1,942,855,949.3z"/>
	<path class="st0" d="M411.6,500.7c-90.5,0.3-164.7-73.8-164.7-164.3c0-90.2,73.6-163.9,163.9-164.3
		c90.3-0.4,164.7,73.9,164.7,164.4C575.4,426.7,501.8,500.5,411.6,500.7z M411.3,463.4c69.9,0,127-57.3,126.9-127.2
		c-0.2-69.5-57.1-126.4-126.6-126.7c-69.8-0.2-127.2,57-127.3,126.8C284.2,406.2,341.3,463.4,411.3,463.4z"/>
	<path class="st0" d="M487.7,556.7c51.6,0,103.3,0,154.9,0c3.1,0,6.3-0.1,9.3,0.3c9.8,1.4,16.7,9.1,16.8,18.2
		c0.1,9.1-6.9,16.9-16.6,18.4c-2.4,0.4-5,0.3-7.4,0.3c-104.5,0-209,0-313.5,0.1c-9.7,0-18.1-2.1-22.3-11.8
		c-5.3-12.5,3.7-25,18.3-25.5c12.7-0.4,25.5-0.1,38.3-0.1C406.2,556.7,447,556.7,487.7,556.7z"/>
	<path class="st0" d="M418.7,698.7c-29.5,0-59.1,0-88.6,0c-8.2,0-15.5-1.8-20-9.4c-5.9-10.1-1.3-22.9,10-26.5
		c4-1.3,8.6-1.4,12.9-1.4c57.2-0.1,114.4-0.1,171.6-0.1c2.2,0,4.4-0.1,6.5,0.1c11.5,0.8,19.5,8.4,19.4,18.6c0,10.2-8,18.2-19.5,18.5
		c-16.5,0.4-33,0.1-49.4,0.1C447.3,698.7,433,698.7,418.7,698.7z"/>
	<path class="st0" d="M202.4,594.1c-9.6,0-19.2,0.3-28.8-0.1c-11.9-0.4-20.2-8.5-19.9-19c0.2-10.1,8.2-18,19.8-18.2
		c19.5-0.3,39.1-0.4,58.6,0c11.7,0.2,19.2,8,19.3,18.5c0,10.5-7.4,18.2-19.1,18.6C222.3,594.4,212.4,594.1,202.4,594.1z"/>
	<path class="st0" d="M202.7,698.7c-9.6,0-19.2,0.2-28.8-0.1c-12-0.4-20.3-8.3-20.2-18.8c0.1-10.5,8.4-18.3,20.5-18.4
		c18.9-0.3,37.8-0.3,56.8,0c12.4,0.2,20.2,7.5,20.4,18.3c0.2,11.2-7.8,18.6-20.7,18.9C221.3,698.8,212,698.7,202.7,698.7z"/>
	<path class="st0" d="M202.1,803.2c-9.3,0-18.6,0.2-27.9,0c-12.1-0.3-20.4-8-20.5-18.5c-0.1-10.5,8.1-18.5,20.1-18.7
		c19.2-0.3,38.5-0.3,57.7,0c12.3,0.2,20,7.9,19.8,18.8c-0.2,10.5-7.7,17.9-19.5,18.3C221.9,803.5,212,803.2,202.1,803.2z"/>
	<path class="st0" d="M344.2,784.9c-0.2,10-8.8,18.4-18.6,18.2c-9.8-0.2-18.4-9.2-18.1-18.9c0.2-9.9,9.1-18.4,18.8-18.2
		C336.3,766.2,344.4,774.8,344.2,784.9z"/>
	<path class="st0" d="M392.5,317.8c0-16.8-0.2-32.3,0.1-47.8c0.2-11.3,6.2-18.5,15.8-19.8c12.2-1.6,21,6.3,21.3,19.9
		c0.3,15.5,0.1,31,0.1,47.7c16.1,0,31.5-0.2,46.9,0.1c12.3,0.2,19.9,6.6,20.9,16.9c1.1,11.7-6.9,20.1-20.1,20.3
		c-15.5,0.3-31,0.1-47.6,0.1c0,16.1,0.2,31.5-0.1,46.9c-0.2,12.7-7.1,20.5-17.8,21c-11.2,0.5-19.2-7.5-19.4-20.3
		c-0.3-15.5-0.1-31-0.1-47.7c-16,0-31.5,0.1-46.9,0c-11.2-0.1-18.4-5.2-20.4-14c-3-12.6,5.3-22.8,19.6-23.2
		C360.3,317.5,375.8,317.8,392.5,317.8z"/>
</g>
</svg>
