<?xml version="1.0" encoding="utf-8"?>
<!-- Generator: Adobe Illustrator 28.1.0, SVG Export Plug-In . SVG Version: 6.00 Build 0)  -->
<svg version="1.1" id="Capa_1" xmlns="http://www.w3.org/2000/svg" xmlns:xlink="http://www.w3.org/1999/xlink" x="0px" y="0px"
	 viewBox="0 0 1024 1024" style="enable-background:new 0 0 1024 1024;" xml:space="preserve">
<style type="text/css">
	.st0{fill:#1E53A4;}
</style>
<g>
	<path class="st0" d="M472.4,789.4L472.4,789.4c-8.6,0-15.7,7-15.6,15.7c0,39.8-32.3,72.3-72.2,72.3c0,0,0,0-0.1,0
		c-39.8,0-72.2-32.4-72.3-72.2c0-8.6-7-15.6-15.6-15.6h0c-8.6,0-15.6,7-15.6,15.7c0,27.7,10.8,53.6,30.4,73.2
		c19.5,19.5,45.5,30.2,73.1,30.2c0,0,0.1,0,0.1,0c57.1-0.1,103.5-46.5,103.4-103.6C488,796.4,481,789.4,472.4,789.4z"/>
	<path class="st0" d="M934.9,789L934.9,789c-8.6,0-15.7,7-15.6,15.7c0,39.8-32.3,72.3-72.2,72.3c0,0,0,0-0.1,0
		c-19.3,0-37.4-7.5-51-21.1c-13.7-13.6-21.2-31.8-21.2-51.1c0-8.6-7-15.6-15.6-15.6h0c-8.6,0-15.6,7-15.6,15.6
		c0.1,57.1,46.5,103.4,103.5,103.4c0,0,0.1,0,0.1,0c57.1-0.1,103.5-46.5,103.4-103.6C950.6,796,943.6,789,934.9,789z"/>
	<path class="st0" d="M815.9,597.7c0,0-0.1,0-0.2,0c-28.5,0-55.9,6.9-80.6,19.8L735,488.7c12.4,8.8,27.1,13.5,42.5,13.5
		c0,0,0.1,0,0.1,0c8.6,0,15.6-7,15.6-15.7l-0.1-116.5c0-4.1-1.7-8.1-4.6-11.1c-2.9-2.9-6.9-4.6-11-4.6h0c-31.9,0-59,20.4-69.3,48.8
		l-44.3-27c-7.4-4.5-17-2.2-21.5,5.2c-4.5,7.4-2.2,17,5.2,21.5l56.1,34.2l0.2,208.8c0,0,0,0,0,0l0.1,110.3l-124.6,0.1
		c-3.7-46.4-23.4-89.5-56.7-122.7c-9.9-9.9-20.8-18.5-32.4-26l74-0.1c8.6,0,15.6-7,15.6-15.6c0-8.6-7-15.6-15.6-15.6h0l-179.7,0.2
		c0,0-0.1,0-0.1,0c-0.1,0-0.1,0-0.2,0c0,0-0.1,0-0.1,0l-179.9,0.2c-8.6,0-15.6,7-15.6,15.7c0,8.6,7,15.6,15.6,15.6h0l74-0.1
		c-11.5,7.5-22.4,16.1-32.3,26.1c-36.9,37-57.2,86.1-57.2,138.4c0,4.2,1.7,8.1,4.6,11.1c2.9,2.9,6.9,4.6,11,4.6h0l360.1-0.4
		l155.1-0.1l254.7-0.3c8.6,0,15.6-7,15.6-15.7C989.9,675.7,911.8,597.7,815.9,597.7z M747.4,398.3c4.2-4.2,9.1-7.4,14.5-9.5
		l0.1,79.3c-5.4-2.1-10.3-5.3-14.5-9.5c-8.1-8-12.5-18.7-12.5-30.1C734.9,417.1,739.4,406.4,747.4,398.3z M220.8,756.8
		c3.5-38,20-73.3,47.3-100.7c31-31.1,72.2-48.2,116.1-48.3h0.4c43.8,0,85,17.1,116,48c27.4,27.3,43.9,62.6,47.5,100.6L220.8,756.8z
		 M735.3,756.3L735.2,654c23.8-16.3,51.5-25,80.5-25c0,0,0.1,0,0.1,0c73.4,0,134.1,55.7,142,127.1L735.3,756.3z"/>
	<path class="st0" d="M379.8,541.4c1.5,0.5,3,1,4.7,1h0c8.6,0,15.6-7,15.6-15.7l-0.3-334.4c0-8.6-7-15.6-15.6-15.6h0L49.6,177
		C41,177,34,184,34,192.6c0,0.3,0.1,0.5,0.1,0.7l0.3,333.7c0,8.6,7,15.6,15.6,15.6h0l324.8-0.3C376.6,542.4,378.2,541.9,379.8,541.4
		z M368.9,511.1l-303.1,0.3l-0.3-303.2l303.1-0.3L368.9,511.1z"/>
	<path class="st0" d="M442,542.5h132.7l29.7,184.7c1.2,7.6,7.8,13.2,15.4,13.2h67.9c8.6,0,15.6-7,15.6-15.6c0-8.6-7-15.6-15.6-15.6
		h-54.5l-29.7-184.7c-1.2-7.6-7.8-13.2-15.4-13.2H463.9l48-140.7c23.6,56.3,79.2,95.9,143.9,95.9c8.6,0,15.6-7,15.6-15.6
		c0-8.6-7-15.6-15.6-15.6c-68.4,0-124.1-55.4-124.6-123.7c0.4-6.6-3.2-12.7-9.5-15.3c0,0-0.1-0.1-0.1-0.1c-0.2-0.1-0.4-0.3-0.7-0.4
		c-1.1-0.4-2.3-0.3-3.4-0.4c-0.7-0.1-1.3-0.4-2-0.4c-0.2,0-0.3,0.1-0.4,0.1c-0.7,0-1.3,0.3-1.9,0.4c-6.2,1-11,5.4-12.5,11.4
		l-73.4,215.1c-1.6,4.8-0.9,10,2.1,14.1C432.2,540.1,437,542.5,442,542.5z"/>
	<path class="st0" d="M602.2,320.2c56.5,0,102.4-46,102.4-102.4c0-56.5-45.9-102.4-102.4-102.4c-56.5,0-102.4,46-102.4,102.4
		C499.8,274.2,545.7,320.2,602.2,320.2z M602.2,146.6c39.2,0,71.2,31.9,71.2,71.2c0,39.2-31.9,71.2-71.2,71.2
		c-39.2,0-71.2-31.9-71.2-71.2C531.1,178.5,563,146.6,602.2,146.6z"/>
	<path class="st0" d="M156,375.4h40.7V416c0,8.6,7,15.6,15.6,15.6s15.6-7,15.6-15.6v-40.7h40.7c8.6,0,15.6-7,15.6-15.6
		s-7-15.6-15.6-15.6h-40.7v-40.7c0-8.6-7-15.6-15.6-15.6s-15.6,7-15.6,15.6v40.7H156c-8.6,0-15.6,7-15.6,15.6S147.3,375.4,156,375.4
		z"/>
</g>
</svg>
