<?xml version="1.0" encoding="utf-8"?>
<!-- Generator: Adobe Illustrator 28.1.0, SVG Export Plug-In . SVG Version: 6.00 Build 0)  -->
<svg version="1.1" id="Capa_1" xmlns="http://www.w3.org/2000/svg" xmlns:xlink="http://www.w3.org/1999/xlink" x="0px" y="0px"
	 viewBox="0 0 1024 1024" style="enable-background:new 0 0 1024 1024;" xml:space="preserve">
<style type="text/css">
	.st0{fill:#2A51A2;}
</style>
<g>
	<g>
		<g>
			<path class="st0" d="M528,35.9h-44.9H242.8h-44.9c-47.4,0-85.9,38.7-85.9,85.9v608.6c0,47.4,38.7,85.9,85.9,85.9h223.5
				c7.7,0,13.9-6.2,13.9-13.9c0-7.7-6.2-13.9-13.9-13.9H197.9c-32.1,0-58.1-26-58.1-58.1V121.8c0-32.1,26-58.1,58.1-58.1h31v30.4
				c0,35,28.4,63.4,63.4,63.4h9.9c7.7,0,13.9-6.2,13.9-13.9c0-7.7-6.2-13.9-13.9-13.9h-9.9c-19.6,0-35.5-15.9-35.5-35.5V63.7h212.5
				v30.4c0,19.6-15.9,35.5-35.5,35.5H292.2c-7.7,0-13.9,6.2-13.9,13.9c0,7.7,6.2,13.9,13.9,13.9h141.4c35,0,63.4-28.4,63.4-63.4
				V63.7h31c32.1,0,58.1,26,58.1,58.1v198.8c0,7.7,6.2,13.9,13.9,13.9c7.7,0,13.9-6.2,13.9-13.9V121.8
				C614.1,74.4,575.5,35.9,528,35.9z"/>
		</g>
	</g>
	<g>
		<g>
			<path class="st0" d="M367.4,725.1h-85.7c-7.7,0-13.9,6.2-13.9,13.9c0,7.7,6.2,13.9,13.9,13.9h85.7c7.7,0,13.9-6.2,13.9-13.9
				C381.3,731.3,375.1,725.1,367.4,725.1z"/>
		</g>
	</g>
	<g>
		<g>
			<path class="st0" d="M458.2,407.4c-7.1,0-14.1,1.1-20.5,3.1c22.7-31,20.2-74.7-7.7-102.6c-30.8-30.8-80.8-30.8-111.6,0
				L211.1,415.3c-14.8,14.8-23.1,34.6-23.1,55.9c0,21.1,8.2,40.9,23.1,55.9c15.4,15.4,35.5,23.1,55.9,23.1
				c20.2,0,40.5-7.7,55.9-23.1l66.9-66.9c-1.6,6-2.6,12.3-2.6,18.7c0,39.2,31.9,71.3,71.3,71.3s71.3-31.9,71.3-71.3
				C529.3,439.5,497.4,407.4,458.2,407.4z M302.9,507.1c-20,19.8-52.2,19.8-72.2,0c-9.5-9.5-14.8-22.4-15-36.1
				c0-13.6,5.3-26.4,15-36.1l43.8-43.8l72.2,72.2L302.9,507.1z M366.4,443.5l-72.2-72.2l43.8-43.8c9.9-9.9,23.1-14.8,36.1-14.8
				c13,0,26.2,4.9,36.1,14.8c19.8,20,19.8,52.2,0,72.2L366.4,443.5z M458.2,521.9c-19.1,0-35.2-12.3-40.9-29.3h81.7
				C493.2,509.6,477.1,521.9,458.2,521.9z M417.2,464.8c5.9-17,22-29.3,40.9-29.3s35.2,12.3,40.9,29.3H417.2z"/>
		</g>
	</g>
	<g>
		<g>
			<path class="st0" d="M854.7,550.1c-15.6,0-29.9,6.2-40.1,16.5c-10.4-14.5-27.5-24-46.7-24c-15.9,0-30.4,6.6-40.9,17
				c-10.4-14.1-27.3-23.1-46-23.1c-10.8,0-20.9,2.9-29.5,8.1V420.1c0-31.7-25.8-57.3-57.3-57.3c-31.7,0-57.3,25.8-57.3,57.3v269.1
				l-24.9-25.1c-11.5-11.5-26.9-18-43.2-18c-16.3,0-31.7,6.4-43.2,18c-11.5,11.5-18,26.9-18,43.2c0,16.3,6.4,31.7,18,43.2
				l154.6,154.6v70.7c0,7.7,6.2,13.9,13.9,13.9h124.2c7.7,0,13.9-6.2,13.9-13.9c0-7.7-6.2-13.9-13.9-13.9H608.1v-62.5
				c0-3.7-1.5-7.3-4-9.9L445.2,730.8c-6.2-6.2-9.7-14.7-9.7-23.4s3.5-17.2,9.7-23.4c13-13,34.1-13,46.9,0l48.7,48.7
				c4,4,10.1,5.1,15.2,3.1c5.3-2.2,8.6-7.3,8.6-12.8v-303c0-16.3,13.2-29.5,29.5-29.5c16.3,0,29.5,13.2,29.5,29.5v173.9
				c0,7.7,6.2,13.9,13.9,13.9c7.7,0,13.9-6.2,13.9-13.9c0-16.3,13.2-29.5,29.5-29.5c16.3,0,29.5,13.2,29.5,29.5v6
				c0,7.7,6.2,13.9,13.9,13.9c7.7,0,13.9-6.2,13.9-13.9c0-16.3,13.2-29.5,29.5-29.5c16.3,0,29.5,13.2,29.5,29.5v7.7
				c0,7.7,6.2,13.9,13.9,13.9c7.7,0,13.9-6.2,13.9-13.9c0-16.3,13.2-29.5,29.5-29.5c16.3,0,29.5,13.2,29.5,29.5v354.7H689.8
				c-7.7,0-13.9,6.2-13.9,13.9c0,7.7,6.2,13.9,13.9,13.9h208.3c7.7,0,13.9-6.2,13.9-13.9V607.5C912,575.8,886.4,550.1,854.7,550.1z"
				/>
		</g>
	</g>
</g>
</svg>
