<?xml version="1.0" encoding="utf-8"?>
<!-- Generator: Adobe Illustrator 28.1.0, SVG Export Plug-In . SVG Version: 6.00 Build 0)  -->
<svg version="1.1" id="Capa_1" xmlns="http://www.w3.org/2000/svg" xmlns:xlink="http://www.w3.org/1999/xlink" x="0px" y="0px"
	 viewBox="0 0 1024 1024" style="enable-background:new 0 0 1024 1024;" xml:space="preserve">
<style type="text/css">
	.st0{fill:#2A51A1;}
	.st1{fill:#2A519E;}
</style>
<g>
	<g>
		<g>
			<path class="st0" d="M768.6,720.3c-14.5-6.3-30.5-6.1-44.2-0.6V512.3c0-7.1-5.8-12.8-12.8-12.8H244.8c-7.1,0-12.8,5.8-12.8,12.8
				v208.8c-19.1,10.2-36.3,24.2-49.8,41.1v-24.7c0-7.1-5.8-12.8-12.8-12.8H47c-7.1,0-12.8,5.8-12.8,12.8v239.8
				c0,7.1,5.8,12.8,12.8,12.8h122.3h357.9c100.2,0,192.8-54.5,241.3-142.2l27-48.7c7.6-13.9,9.3-30.5,4.1-45.4
				C794.5,738.9,783.1,726.6,768.6,720.3z M257.6,525.3h441.2v215.7l-61.3,83.5c-13.8,18.6-33.6,31.4-56,36.4c5-8.4,8-18.2,8-28.6
				c0-31.4-25.5-56.9-56.9-56.9h-92.2c-28.6-45.4-78.6-73.2-132.6-73.2c-17.3,0-34.2,3-50.2,8.2L257.6,525.3L257.6,525.3z
				 M59.6,750.4h96.5v214H59.6V750.4z M772.7,786.9l-27,48.7C701.7,915.1,617.9,964.4,527,964.4h-345V813.8
				c18.4-50.8,69.9-86.3,125.9-86.3c47.2,0,90.9,25.7,114,66.7c2.2,4.1,6.5,6.5,11.2,6.5h99.5c17.1,0,31,13.9,31,31s-13.9,31-31,31
				H414.5c-7.1,0-12.8,5.8-12.8,12.8s5.8,12.8,12.8,12.8h58.7l0,0h87.2c38.3,0,74.7-18.4,97.4-49.3l63-85.7
				c8.6-11.7,23.8-15.8,37.2-9.9c8,3.5,13.9,10,16.7,18.2C777.7,770.5,777,779.2,772.7,786.9z"/>
			<path class="st0" d="M977,33.9H854.7H496.8c-82.7,0-159.5,36.3-212.1,99.6H148.8c-7.1,0-12.8,5.8-12.8,12.8v290
				c0,7.1,5.8,12.8,12.8,12.8h193c7.1,0,12.8-5.8,12.8-12.8s-5.8-12.8-12.8-12.8h-85.3c-5.8-49.5-45.2-88.7-94.6-94.3v-75.7
				c49.5-5.4,89-44.8,94.6-94.3h296.9l-38.1,11.2c-14.5,4.3-26.6,13.9-33.8,27.3c-5.9,11-8,23.2-6.1,35.5
				c-11.9-8.7-26.6-13.9-42.6-13.9c-39.8,0-72.1,32.3-72.1,72.1s32.3,72.1,72.1,72.1s72.1-32.3,72.1-72.1c0-5.9-0.7-11.7-2.2-17.3
				c0.4,0.2,0.7,0.6,1.3,0.9c13.4,7.3,28.6,8.9,43.3,4.6l88.5-25.8c19.7,17.5,43.1,29.2,67.9,35v40.5c-49.5,5.4-89,44.6-94.6,94.1
				h-97c-7.1,0-12.8,5.8-12.8,12.8c0,7.1,5.8,12.8,12.8,12.8h204.5c7.1,0,12.8-5.8,12.8-12.8V292.7c3.3,0.2,6.9,0.6,10.4,0.6
				c14.7,0,29.4-2,43.9-6.3c21.8-6.3,41.5-17.3,58.4-31.8v31.6c0,7.1,5.8,12.8,12.8,12.8H977c7.1,0,12.8-5.8,12.8-12.8V47
				C990.1,39.7,984.3,33.9,977,33.9z M635,423.6c5.4-35.1,33.3-63,68.6-68v68H635z M230.3,423.6h-68.6v-68
				C197,360.6,224.9,388.3,230.3,423.6z M161.7,227.5v-68h68.6C224.9,194.6,197,222.5,161.7,227.5z M432.7,337.9
				c-25.7,0-46.3-20.8-46.3-46.3s20.8-46.3,46.3-46.3c25.7,0,46.3,20.8,46.3,46.3S458.2,337.9,432.7,337.9z M776.3,262.2
				c-45.4,13.2-94.4,0.9-128.3-32c-3.3-3.2-8.2-4.5-12.6-3.2L539.8,255c-8,2.4-16.4,1.5-23.6-2.6c-7.3-3.9-12.6-10.6-14.9-18.6
				c-2.4-8-1.5-16.4,2.6-23.6c3.9-7.3,10.6-12.6,18.6-14.9l166.4-48.7c6.9-2,10.8-9.1,8.7-16c-2-6.9-9.1-10.8-16-8.7l-40.5,11.9
				c-0.4,0-0.6-0.2-0.9-0.2H319.3C366,86.4,429.4,59.8,496.8,59.8h345V218C825,239.2,802.3,254.6,776.3,262.2z M964.2,273.8h-96.5
				v-214h96.5V273.8z"/>
			<path class="st0" d="M426.8,449.3c3.3,0,6.7-1.3,9.1-3.7c2.4-2.4,3.7-5.8,3.7-9.1c0-1.7-0.2-3.3-0.9-4.8c-0.6-1.5-1.7-3-2.8-4.3
				c-3.5-3.5-9.3-4.8-14.1-2.8c-1.5,0.7-3,1.5-4.3,2.8c-1.1,1.3-2,2.8-2.8,4.3c-0.6,1.5-1.1,3.2-1.1,4.8c0,1.7,0.4,3.3,1.1,5
				c0.6,1.5,1.5,3,2.8,4.1C420.1,448,423.4,449.3,426.8,449.3z"/>
		</g>
	</g>
	<g>
		<path class="st1" d="M478.2,598.4c-15.6,0-28.4,12.8-28.4,28.4v12.9h-12.9c-15.6,0-28.4,12.8-28.4,28.4s12.8,28.4,28.4,28.4h4.2
			h8.7h16.3V680h-16.3H437c-6.6,0-12.1-5.4-12.1-12.1s5.4-12.1,12.1-12.1h12.8h16.3v-16.3v-12.8c0-6.6,5.4-12.1,12.1-12.1
			c6.7,0,12.1,5.4,12.1,12.1v4.6h16.3v-4.7C506.5,611.1,493.8,598.4,478.2,598.4"/>
		<path class="st1" d="M519.4,639.6h-4.2l0,0h-8.7h-16.3v16.3h16.3h12.8c6.6,0,12.1,5.4,12.1,12.1S526,680,519.3,680h-12.8h-16.3
			v16.3v12.8c0,6.6-5.4,12.1-12.1,12.1c-6.7,0-12.1-5.4-12.1-12.1v-4.6h-16.3v4.7c0,15.6,12.8,28.4,28.4,28.4
			c15.6,0,28.4-12.8,28.4-28.4v-12.9h12.9c15.6,0,28.4-12.8,28.4-28.4S535,639.6,519.4,639.6"/>
	</g>
</g>
</svg>
