<?xml version="1.0" encoding="utf-8"?>
<!-- Generator: Adobe Illustrator 28.1.0, SVG Export Plug-In . SVG Version: 6.00 Build 0)  -->
<svg version="1.1" id="Capa_1" xmlns="http://www.w3.org/2000/svg" xmlns:xlink="http://www.w3.org/1999/xlink" x="0px" y="0px"
	 viewBox="0 0 1024 1024" style="enable-background:new 0 0 1024 1024;" xml:space="preserve">
<style type="text/css">
	.st0{fill:#ffffff;}
</style>
<g id="drug-medical-coronavirus-covid19-hospital_00000000931521180188763890000017792843534582979459_">
	<path class="st0" d="M915.3,364.1c-21.2-51-51-98.2-87.8-139.2l-16.3-18.1v-41.4h15.8c8.7,0,15.8-7.1,15.8-15.8v-63
		c0-26.1-21.2-47.2-47.2-47.2H637.9c-26.1,0-47.2,21.2-47.2,47.2v63c0,8.7,7.1,15.8,15.8,15.8h15.8v41.2L606,224.7
		c-80.8,89.7-125.4,206-125.4,326.7v86.6H449V464.8c0.2-29.2-11.4-57.3-32.3-77.9c-20.9-20.5-48.8-32.1-78.2-32.3
		c-8.5,0-15.4-7.1-15.6-15.6v-16.2h15.8c8.7,0,15.8-7.1,15.8-15.8v-63c0-26.1-21.2-47.2-47.2-47.2h-94.6
		c-26.1,0-47.2,21.2-47.2,47.2v63c0,8.7,7.1,15.8,15.8,15.8h15.8V339c0,8.2-6.5,15.1-14.7,15.6C117.8,359.2,71,405.5,71,464.6v315.1
		c0,26.1,21.2,47.2,47.2,47.2h63v78.9c0,43.6,35.2,78.8,78.8,78.8h504.2c37.4-0.2,69.7-26.3,77.1-63h33c43.6,0,78.8-35.2,78.8-78.8
		V551.6C952.8,487.1,939.9,423.4,915.3,364.1z M622,86.6c0-8.7,7.1-15.8,15.8-15.8h157.5c8.7,0,15.8,7.1,15.8,15.8v47.2H622V86.6z
		 M779.5,165.4v31.6H653.6v-31.6H779.5z M628.9,245.9l15.8-17.4h143.7l15.8,17.4c29.2,32.5,53.5,69.1,72.4,108.5H556.5
		C575.3,315.1,599.7,278.4,628.9,245.9z M196.6,244.1c0-8.7,7.1-15.8,15.8-15.8h94.6c8.7,0,15.8,7.1,15.8,15.8v47.2H196.8v-47.2
		H196.6z M102,464.8c0-42.8,33.8-75.1,82-78.4c24.7-1.8,43.9-22.3,43.9-47.2v-16.2h63v16.2c0.2,25.4,20.1,46.1,45.6,47.2
		c21.4-0.2,42.1,8.2,57.5,23c14.9,14.7,23,34.7,23,55.5v173.3h-63V496.6c0-8.7-7.1-15.8-15.8-15.8H102V464.8z M180.8,795.5h-63
		c-8.7,0-15.8-7.1-15.8-15.8v-47.2h78.8L180.8,795.5L180.8,795.5z M182.4,701.1H102V512h220.5v125.9h-63
		C222.2,638.1,190.1,664.4,182.4,701.1z M810.9,905.8c0,26.1-21.2,47.2-47.2,47.2H259.6c-26.1,0-47.2-21.2-47.2-47.2V716.7
		c0-26.1,21.2-47.2,47.2-47.2h504.2c26.1,0,47.2,21.2,47.2,47.2V905.8z M921.2,842.8c0,26.1-21.2,47.2-47.2,47.2h-31.6V716.7
		c0-17.1-5.8-33.8-16.2-47.2h94.9L921.2,842.8L921.2,842.8z M921.2,637.9H511.6v-86.6c0-56.6,10.5-112.7,31-165.5h347.5
		c20.5,52.8,31,108.9,31,165.5L921.2,637.9L921.2,637.9z"/>
	<path class="st0" d="M763.7,559.2h31.6c8.7,0,15.8-7.1,15.8-15.8v-63c0-8.7-7.1-15.8-15.8-15.8h-31.6v-31.6
		c0-8.7-7.1-15.8-15.8-15.8h-63c-8.7,0-15.8,7.1-15.8,15.8v31.8h-31.6c-8.7,0-15.8,7.1-15.8,15.8v63c0,8.7,7.1,15.8,15.8,15.8h31.6
		v31.6c0,8.7,7.1,15.8,15.8,15.8h63c8.7,0,15.8-7.1,15.8-15.8V559.2z M747.9,527.8c-8.7,0-15.8,7.1-15.8,15.8v31.6h-31.6v-31.6
		c0-8.7-7.1-15.8-15.8-15.8h-31.6v-31.6h31.6c8.7,0,15.8-7.1,15.8-15.8v-31.6h31.6v31.6c0,8.7,7.1,15.8,15.8,15.8h31.6v31.6H747.9z"
		/>
	<path class="st0" d="M506.9,701.1c-26.1,0-47.2,21.2-47.2,47.2c0,26,21.2,47.2,47.2,47.2s47.2-21.2,47.2-47.2
		C554.1,722.3,533,701.1,506.9,701.1z M506.9,764.1c-8.7,0-15.8-7.1-15.8-15.8c0-8.7,7.1-15.8,15.8-15.8s15.8,7.1,15.8,15.8
		C522.7,757,515.6,764.1,506.9,764.1z"/>
	<path class="st0" d="M506.9,827.1c-26.1,0-47.2,21.2-47.2,47.2c0,26,21.2,47.2,47.2,47.2s47.2-21.2,47.2-47.2l0,0
		C554.1,848.3,533,827.1,506.9,827.1z M506.9,890c-8.7,0-15.8-7.1-15.8-15.8c0-8.7,7.1-15.8,15.8-15.8s15.8,7.1,15.8,15.8
		C522.7,882.9,515.6,890,506.9,890z"/>
	<path class="st0" d="M322.5,701.1c-26.1,0-47.2,21.2-47.2,47.2c0,26,21.2,47.2,47.2,47.2c26.1,0,47.2-21.2,47.2-47.2
		C369.7,722.3,348.7,701.1,322.5,701.1z M322.5,764.1c-8.7,0-15.8-7.1-15.8-15.8c0-8.7,7.1-15.8,15.8-15.8s15.8,7.1,15.8,15.8
		C338.3,757,331.2,764.1,322.5,764.1z"/>
	<path class="st0" d="M322.5,827.1c-26.1,0-47.2,21.2-47.2,47.2c0,26,21.2,47.2,47.2,47.2c26.1,0,47.2-21.2,47.2-47.2l0,0
		C369.9,848.3,348.7,827.1,322.5,827.1z M322.5,890c-8.7,0-15.8-7.1-15.8-15.8c0-8.7,7.1-15.8,15.8-15.8s15.8,7.1,15.8,15.8
		C338.3,882.9,331.2,890,322.5,890z"/>
	<path class="st0" d="M700.7,701.1c-26.1,0-47.2,21.2-47.2,47.2c0,26,21.2,47.2,47.2,47.2s47.2-21.2,47.2-47.2
		C747.9,722.3,726.7,701.1,700.7,701.1z M700.7,764.1c-8.7,0-15.8-7.1-15.8-15.8c0-8.7,7.1-15.8,15.8-15.8c8.7,0,15.8,7.1,15.8,15.8
		C716.5,757,709.5,764.1,700.7,764.1z"/>
	<path class="st0" d="M700.7,827.1c-26.1,0-47.2,21.2-47.2,47.2c0,26,21.2,47.2,47.2,47.2s47.2-21.2,47.2-47.2l0,0
		C747.9,848.3,726.7,827.1,700.7,827.1z M700.7,890c-8.7,0-15.8-7.1-15.8-15.8c0-8.7,7.1-15.8,15.8-15.8c8.7,0,15.8,7.1,15.8,15.8
		C716.5,882.9,709.5,890,700.7,890z"/>
</g>
</svg>
