<?xml version="1.0" encoding="utf-8"?>
<!-- Generator: Adobe Illustrator 28.1.0, SVG Export Plug-In . SVG Version: 6.00 Build 0)  -->
<svg version="1.1" id="Capa_1" xmlns="http://www.w3.org/2000/svg" xmlns:xlink="http://www.w3.org/1999/xlink" x="0px" y="0px"
	 viewBox="0 0 1024 1024" style="enable-background:new 0 0 1024 1024;" xml:space="preserve">
<style type="text/css">
	.st0{fill:#ffffff;}
</style>
<g>
	<path class="st0" d="M926.9,323.3c0-16.6-6.9-32.5-18.9-43.9c-2.4-2.3-5-4.4-7.7-6.2l0.2-0.2l17-16.6c24.1-23.8,24.4-62.7,0.6-86.8
		c-10.3-10.4-24-16.9-38.6-18.1v-33c0-43.9-35.6-79.4-79.5-79.5H538.8c-43.9,0.1-79.4,35.6-79.5,79.5V228c0,7.7,6.2,13.9,13.9,13.9
		c7.7,0,13.9-6.2,13.9-13.9V118.4c0-28.6,23.2-51.7,51.7-51.7h42.3v21.3c0,18.9,15.3,34.2,34.2,34.2h108.3
		c18.9,0,34.2-15.3,34.2-34.2V66.7h42.3c28.6,0,51.7,23.2,51.7,51.7v37.1c-12.9,5.2-27,19.9-37.1,29.9
		c-24.1,23.7-24.5,62.5-0.8,86.7c2.8,2.8,5.8,5.4,9.1,7.6l-0.2,0.2l-17,16.6c-11.9,11.6-18.5,27.5-18.3,44.1
		c0.2,21.1,11.2,40.7,29.2,51.7l-14.9,14.8c-11.9,11.6-18.5,27.5-18.3,44.1c0.2,22,12.1,42.2,31.3,53.1l-12.9,12.7
		c-24.1,23.8-24.4,62.6-0.6,86.8c13.3,13.5,32,20.1,50.7,17.9v6.7c0,28.6-23.2,51.7-51.7,51.7h-120c-7.7,0-13.9,6.2-13.9,13.9
		c0,7.7,6.2,13.9,13.9,13.9H750c-35.6,44.9-88.5,72.7-145.7,76.5l-38.9,2.6c-17.6,1.1-34.2,8.7-46.7,21.1l-12.1,12.1L342.1,655.8
		l15.2-19.9c11.6-15.4,17.9-34.2,17.9-53.5v-73.1c0-6.5,1.1-13,3.1-19.2l66.5-199.5c32.6,1.4,57.8,29,56.4,61.6
		c-0.1,3.4-0.6,6.7-1.3,10L480.6,450c-3.4,15.4-0.9,31.5,7,45.1l21.1,36.3c20.5,35.2,26.1,77.1,15.6,116.4l-17,64.3
		c-1.9,7.4,2.5,15,9.9,16.9c7.4,1.9,14.9-2.5,16.9-9.8l3-11.2c1.8,0,85.8,0,87.7,0c7.7,0,13.9-6.2,13.9-13.9
		c0-7.7-6.2-13.9-13.9-13.9h-80.4l6.7-25.4c12.4-46.4,5.7-95.9-18.5-137.4l-20.9-36.3c-4.4-7.6-5.8-16.7-3.9-25.3l19.3-87.8
		c10.3-46.8-19.3-93.1-66.1-103.3c-6.1-1.3-12.3-2-18.6-2c-10.4,0-19.6,6.6-22.9,16.4l-67.3,202c-3,9-4.5,18.5-4.5,28v73.1
		c0,13.3-4.3,26.1-12.3,36.7l-13.7,18c-16.4-9.7-37.3-7.1-50.7,6.4l-42.6,43.4L92.3,825.3c-5.4,5.4-5.5,14.2-0.1,19.6
		c5.4,5.4,14.2,5.5,19.6,0.1c0.1-0.1,0.2-0.2,0.3-0.3L238,716.4l208.4,208.4l-36.8,36.8c-5.3,5.5-5.2,14.3,0.3,19.6
		c5.4,5.2,13.9,5.2,19.3,0l46.4-46.4l0.1-0.1l0.1-0.1l43-43c13.4-13.5,16-34.3,6.3-50.6l12.9-13c7.7-7.7,18-12.4,28.9-13.1l38.9-2.6
		c72.4-4.7,138.4-43.3,178.1-104.1h16c43.9-0.1,79.4-35.6,79.5-79.5v-17.2c7.7-5.1,18.5-16.9,25-23.3c24.1-23.7,24.5-62.5,0.8-86.7
		c-0.4-0.5-0.9-0.9-1.4-1.3c-3.7-3.6-7.9-6.7-12.4-9.2l12.9-12.8c24.1-23.7,24.5-62.5,0.8-86.7c-0.4-0.5-0.9-0.9-1.4-1.3
		c-3.1-3-6.6-5.6-10.3-7.9l14.9-14.7C920.4,355.8,927.1,339.9,926.9,323.3z M730.1,87.9c0,3.6-2.9,6.5-6.5,6.5H615.3
		c-3.6,0-6.5-2.9-6.5-6.5V66.7h121.3V87.9z M833.4,206.1c0.2-0.3,0.5-0.5,0.7-0.8l17-16.6c13.1-13.1,34.3-13.2,47.4-0.1
		c13.1,13.1,13.2,34.3,0.1,47.4c-0.2,0.2-0.4,0.4-0.6,0.6l-17,16.6c-6.1,6.3-14.5,9.8-23.3,9.7c-8.7,0.1-17.1-3.3-23.4-9.4
		C821.1,240.7,820.6,219.4,833.4,206.1z M895.1,544c0.1,9.1-3.5,17.8-10,24.2l-17,16.6c-2.5,2.5-5.4,4.5-8.6,6.1
		c-12.6,6.4-27.9,4-38.1-5.8c-13.4-12.8-13.9-34-1.1-47.4c0.2-0.3,0.5-0.5,0.7-0.8l17-16.6c13.2-13,34.4-12.8,47.4,0.4
		C891.6,526.9,895,535.3,895.1,544z M895.1,434L895.1,434c0.1,9.2-3.5,17.9-10,24.2l-17,16.6c-5.3,5.4-12.4,8.8-20,9.5
		c-9.8,1-19.6-2.4-26.7-9.2c-13.4-12.8-13.9-34-1.1-47.4c0.2-0.3,0.5-0.5,0.7-0.8l17-16.6c13.2-13,34.4-12.8,47.4,0.4
		C891.6,416.9,895,425.3,895.1,434z M889.2,347.6l-17,16.6c-5.6,5.7-13,9.1-21,9.6c-9.5,0.7-18.8-2.6-25.7-9.2
		c-13.4-12.8-13.9-34-1.1-47.4c0.2-0.3,0.5-0.5,0.7-0.8l17-16.6c6.1-6.4,14.7-9.9,23.5-9.7c18.5,0,33.6,15.1,33.6,33.6
		C899.2,332.7,895.6,341.3,889.2,347.6z"/>
	<path class="st0" d="M770.6,460.5c-0.1-4.6-0.1-9.3-1-14.1c-7.2-39.9-29.8-68.4-67.1-84.8c-0.6-0.3-1.1-0.5-1.7-0.7
		c11.8-10.4,18.6-23.5,20.3-39c2.1-19-3.7-35.7-17.2-49.5c-11.5-11.7-26.9-18.2-43.3-18.3c0,0-0.1,0-0.1,0c-16.5,0-32,6.5-43.6,18.3
		c-12.8,13-19.2,31.8-17,50.3c1.8,15.1,8.9,28.6,20,38.3c-37,15.3-60,43.3-68.3,83.2c-0.6,2.9-0.9,5.9-1.3,8.8l0,0.2l-0.5-0.6v22.3
		h6.9h13.3h192l2.3-0.5l1.3-1c1.8-1.3,5.2-3.8,5-8.5L770.6,460.5z M607.5,394.5c29.4-21.9,60.7-24.6,93-8.2
		c25.9,13.1,41.5,35.3,46.3,65.9H574.2C577.7,427.7,588.9,408.3,607.5,394.5z M687,342.4c-7.2,7.1-17.2,10.5-27.1,10.7
		c-10.3-0.2-19.8-4.2-26.9-11.5c-7-7.2-10.8-16.8-10.6-26.9c0.2-10.2,4.2-19.7,11.5-26.7c7.2-6.9,16.7-10.7,26.8-10.7
		c0.2,0,0.5,0,0.7,0c20.4,0.3,37.3,17.8,37,38.2C698.3,325.8,694.2,335.3,687,342.4z"/>
</g>
</svg>
