<?xml version="1.0" encoding="utf-8"?>
<!-- Generator: Adobe Illustrator 26.3.1, SVG Export Plug-In . SVG Version: 6.00 Build 0)  -->
<svg version="1.1" id="Capa_1" xmlns="http://www.w3.org/2000/svg" xmlns:xlink="http://www.w3.org/1999/xlink" x="0px" y="0px"
	 viewBox="0 0 800 800" style="enable-background:new 0 0 800 800;" xml:space="preserve">
<style type="text/css">
	.st0{fill:#FFFFFF;}
</style>
<g>
	<path class="st0" d="M400,13.5c-86.65,0-157.55,70.9-157.55,157.55v71.41h-71.4C84.4,242.46,13.5,313.35,13.5,400
		s70.9,157.55,157.55,157.55h23.25h48.15h90.8v-90.8h-90.8h-71c-36.71,0-66.75-30.04-66.75-66.75c0-36.71,30.04-66.75,66.75-66.75
		h71h90.8v-90.8v-71c0-36.71,30.04-66.75,66.75-66.75s66.75,30.04,66.75,66.75v25.81h90.8v-26.21C557.55,84.4,486.65,13.5,400,13.5"
		/>
	<path class="st0" d="M628.95,242.45H605.7v0.2h-48.15h-90.8v90.59h90.8h71c36.71,0,66.75,30.04,66.75,66.75
		s-30.03,66.75-66.75,66.75h-71h-90.8v90.8v71c0,36.72-30.04,66.75-66.75,66.75s-66.75-30.03-66.75-66.75v-25.6h-90.8v26.01
		c0,86.65,70.9,157.55,157.54,157.55c86.66,0,157.55-70.9,157.55-157.55v-71.41h71.41c86.65,0,157.55-70.9,157.55-157.54V400
		C786.5,313.35,715.6,242.45,628.95,242.45"/>
</g>
</svg>
